# xmcd
#
# Track frame offsets: 
#        150
#        14448
#        40393
#        59649
#        79090
#        109564
#        120967
#        144590
#        162882
#        214167
#        238439
#        255439
#        277900
#        298155
#
# Disc length: 4337 seconds
#
# Revision: 0
# Processed by: cddbd v1.4PL0 Copyright (c) Steve Scherf et al.
# Submitted via: ExactAudioCopy v0.95a3
#
DISCID=cb10ef0e
DTITLE=Sir Oliver Mally's Blues Distillery - Live and Lost At The Labyri
DTITLE=nth
DYEAR=1999
DGENRE=Blues
TTITLE0=She Ain't Too Good Lookin'
TTITLE1=Wild Streak
TTITLE2=Can't Get Along With You
TTITLE3=Beware Of Cats
TTITLE4=Fine And Mellow
TTITLE5=Call Me Trouble
TTITLE6=Don't Try To Bend Me
TTITLE7=Cherry Pie
TTITLE8=Nighttime Woman
TTITLE9=Shake For Me
TTITLE10=Stop Telling Me
TTITLE11=Made Of Stone
TTITLE12=Honey Hush
TTITLE13=Boogie Medley
EXTD=
EXTT0=
EXTT1=
EXTT2=
EXTT3=
EXTT4=
EXTT5=
EXTT6=
EXTT7=
EXTT8=
EXTT9=
EXTT10=
EXTT11=
EXTT12=
EXTT13=
PLAYORDER=
